<svg width="113" height="114" viewBox="0 0 113 114" fill="none" xmlns="http://www.w3.org/2000/svg">
<path d="M79.9448 0.841858H32.7532C12.2547 0.841858 0.0344849 13.0621 0.0344849 33.5606V80.6959C0.0344849 101.251 12.2547 113.471 32.7532 113.471H79.8885C100.387 113.471 112.607 101.251 112.607 80.7522V33.5606C112.664 13.0621 100.443 0.841858 79.9448 0.841858ZM79.2127 68.4193C78.368 69.264 77.298 69.6582 76.2281 69.6582C75.1581 69.6582 74.0881 69.2077 73.2434 68.4193L56.349 51.525L39.4547 68.4193C37.8215 70.0524 35.1184 70.0524 33.4853 68.4193C31.8522 66.7862 31.8522 64.0831 33.4853 62.45L53.3644 42.5709C54.9975 40.9378 57.7006 40.9378 59.3337 42.5709L79.2127 62.45C80.8459 64.0831 80.8459 66.7299 79.2127 68.4193Z" fill="white"/>
</svg>
