<svg width="113" height="113" viewBox="0 0 113 113" fill="none" xmlns="http://www.w3.org/2000/svg">
<path d="M89.1203 51.5961H33.4905L50.5172 31.1454C51.3133 30.1875 51.6964 28.9526 51.582 27.7123C51.4677 26.472 50.8653 25.3279 49.9074 24.5317C48.9495 23.7356 47.7146 23.3525 46.4743 23.4669C45.234 23.5812 44.0899 24.1836 43.2937 25.1415L19.841 53.2847C19.6832 53.5086 19.5421 53.7438 19.4189 53.9883C19.4189 54.2228 19.4189 54.3636 19.0905 54.5981C18.8779 55.1359 18.7666 55.7084 18.7622 56.2867C18.7666 56.865 18.8779 57.4375 19.0905 57.9753C19.0905 58.2098 19.0905 58.3505 19.4189 58.585C19.5421 58.8296 19.6832 59.0648 19.841 59.2886L43.2937 87.4319C43.7348 87.9613 44.287 88.3872 44.9113 88.679C45.5355 88.9709 46.2164 89.1216 46.9055 89.1205C48.0014 89.1226 49.0635 88.7409 49.9074 88.0416C50.3824 87.6479 50.775 87.1643 51.0627 86.6185C51.3505 86.0728 51.5278 85.4757 51.5844 84.8613C51.6411 84.247 51.576 83.6275 51.3928 83.0383C51.2097 82.4492 50.9121 81.902 50.5172 81.428L33.4905 60.9772H89.1203C90.3643 60.9772 91.5574 60.483 92.437 59.6034C93.3167 58.7237 93.8109 57.5307 93.8109 56.2867C93.8109 55.0427 93.3167 53.8496 92.437 52.97C91.5574 52.0903 90.3643 51.5961 89.1203 51.5961Z" fill="white"/>
</svg>
