<svg width="128" height="147" viewBox="0 0 128 147" fill="none" xmlns="http://www.w3.org/2000/svg">
<path d="M0 132.376C0 139.937 6.13382 146.07 13.6941 146.07H114.118C121.678 146.07 127.812 139.937 127.812 132.376V54.7764H0V132.376ZM91.294 76.4587C91.294 74.5758 92.8346 73.0352 94.7175 73.0352H106.129C108.012 73.0352 109.553 74.5758 109.553 76.4587V87.8705C109.553 89.7534 108.012 91.294 106.129 91.294H94.7175C92.8346 91.294 91.294 89.7534 91.294 87.8705V76.4587ZM91.294 112.976C91.294 111.093 92.8346 109.553 94.7175 109.553H106.129C108.012 109.553 109.553 111.093 109.553 112.976V124.388C109.553 126.271 108.012 127.812 106.129 127.812H94.7175C92.8346 127.812 91.294 126.271 91.294 124.388V112.976ZM54.7764 76.4587C54.7764 74.5758 56.317 73.0352 58.1999 73.0352H69.6117C71.4946 73.0352 73.0352 74.5758 73.0352 76.4587V87.8705C73.0352 89.7534 71.4946 91.294 69.6117 91.294H58.1999C56.317 91.294 54.7764 89.7534 54.7764 87.8705V76.4587ZM54.7764 112.976C54.7764 111.093 56.317 109.553 58.1999 109.553H69.6117C71.4946 109.553 73.0352 111.093 73.0352 112.976V124.388C73.0352 126.271 71.4946 127.812 69.6117 127.812H58.1999C56.317 127.812 54.7764 126.271 54.7764 124.388V112.976ZM18.2588 76.4587C18.2588 74.5758 19.7994 73.0352 21.6823 73.0352H33.0941C34.977 73.0352 36.5176 74.5758 36.5176 76.4587V87.8705C36.5176 89.7534 34.977 91.294 33.0941 91.294H21.6823C19.7994 91.294 18.2588 89.7534 18.2588 87.8705V76.4587ZM18.2588 112.976C18.2588 111.093 19.7994 109.553 21.6823 109.553H33.0941C34.977 109.553 36.5176 111.093 36.5176 112.976V124.388C36.5176 126.271 34.977 127.812 33.0941 127.812H21.6823C19.7994 127.812 18.2588 126.271 18.2588 124.388V112.976ZM114.118 18.2588H100.423V4.5647C100.423 2.05412 98.3693 0 95.8587 0H86.7293C84.2187 0 82.1646 2.05412 82.1646 4.5647V18.2588H45.647V4.5647C45.647 2.05412 43.5929 0 41.0823 0H31.9529C29.4423 0 27.3882 2.05412 27.3882 4.5647V18.2588H13.6941C6.13382 18.2588 0 24.3926 0 31.9529V45.647H127.812V31.9529C127.812 24.3926 121.678 18.2588 114.118 18.2588Z" fill="white"/>
</svg>
