<svg width="113" height="92" viewBox="0 0 113 92" fill="none" xmlns="http://www.w3.org/2000/svg">
<path d="M15.0353 91.313H97.5377C107.497 91.313 112.573 86.3332 112.573 76.4692V26.3358C112.573 16.4719 107.497 11.5399 97.5377 11.5399H86.3328C82.5982 11.5399 81.449 10.7738 79.2942 8.3796L75.4158 4.07008C73.0696 1.43664 70.6276 0 65.6475 0H46.5902C41.6581 0 39.2161 1.43664 36.8221 4.07008L32.9435 8.3796C30.8367 10.7258 29.6397 11.5399 25.9047 11.5399H15.0353C5.07565 11.5399 0 16.4719 0 26.3358V76.4692C0 86.3332 5.07565 91.313 15.0353 91.313ZM56.2626 75.9905C41.802 75.9905 30.1664 64.3547 30.1664 49.7983C30.1664 35.2419 41.802 23.6065 56.2626 23.6065C70.819 23.6065 82.4067 35.2419 82.4067 49.7983C82.4067 64.3547 70.771 75.9905 56.2626 75.9905ZM90.6907 38.115C87.4342 38.115 84.7529 35.4813 84.7529 32.2254C84.7529 28.9214 87.4342 26.2878 90.6907 26.2878C93.9465 26.2878 96.6277 28.9214 96.6277 32.2254C96.6277 35.4813 93.9465 38.115 90.6907 38.115ZM56.2626 68.7123C66.7011 68.7123 75.1763 60.2849 75.1763 49.7983C75.1763 39.312 66.7011 30.8846 56.2626 30.8846C45.824 30.8846 37.3966 39.312 37.3966 49.7983C37.3966 60.2849 45.8721 68.7123 56.2626 68.7123Z" fill="white"/>
</svg>
