<svg width="93" height="85" viewBox="0 0 93 85" fill="none" xmlns="http://www.w3.org/2000/svg">
<path d="M50.1596 46.3312C56.5566 46.3312 61.7424 51.517 61.7424 57.914L61.7364 63.6928C62.5308 77.8745 51.6079 84.9468 31.3523 84.9468C11.1621 84.9468 0 77.967 0 63.8952V57.914C0 51.517 5.1858 46.3312 11.5828 46.3312H50.1596ZM81.0518 46.3312C87.4488 46.3312 92.6346 51.517 92.6346 57.914L92.6288 61.9802C93.3269 74.7017 83.6755 81.0796 66.0343 81.0796C63.6396 81.0796 61.3883 80.963 59.2859 80.7295C61.5304 78.665 63.2022 76.2004 64.2675 73.3375L66.0343 73.3578C79.8118 73.3578 85.3199 69.7178 84.9127 62.1917V57.914C84.9127 55.7817 83.1841 54.0531 81.0518 54.0531L65.1168 54.053C64.3351 51.0159 62.6527 48.3403 60.3714 46.328L81.0518 46.3312ZM50.1596 54.0531H11.5828C9.45047 54.0531 7.72187 55.7817 7.72187 57.914V63.8952C7.72187 72.7443 14.8873 77.225 31.3523 77.225C47.7518 77.225 54.5151 72.8459 54.0206 63.9087V57.914C54.0206 55.7817 52.292 54.0531 50.1596 54.0531ZM30.8875 0C41.5509 0 50.1953 8.6444 50.1953 19.3078C50.1953 29.9712 41.5509 38.6156 30.8875 38.6156C20.2241 38.6156 11.5797 29.9712 11.5797 19.3078C11.5797 8.6444 20.2241 0 30.8875 0ZM69.4968 7.72187C78.0262 7.72187 84.9406 14.6363 84.9406 23.1656C84.9406 31.695 78.0262 38.6094 69.4968 38.6094C60.9675 38.6094 54.0531 31.695 54.0531 23.1656C54.0531 14.6363 60.9675 7.72187 69.4968 7.72187ZM30.8875 7.72187C24.4888 7.72187 19.3016 12.9091 19.3016 19.3078C19.3016 25.7065 24.4888 30.8937 30.8875 30.8937C37.2862 30.8937 42.4734 25.7065 42.4734 19.3078C42.4734 12.9091 37.2862 7.72187 30.8875 7.72187ZM69.4968 15.4437C65.2322 15.4437 61.775 18.9009 61.775 23.1656C61.775 27.4303 65.2322 30.8875 69.4968 30.8875C73.7615 30.8875 77.2187 27.4303 77.2187 23.1656C77.2187 18.9009 73.7615 15.4437 69.4968 15.4437Z" fill="#246BFD"/>
</svg>
