<svg width="123" height="122" viewBox="0 0 123 122" fill="none" xmlns="http://www.w3.org/2000/svg">
<path d="M61.2106 117.658C92.5161 117.658 117.895 92.2793 117.895 60.9738C117.895 29.6679 92.5161 4.28955 61.2106 4.28955C29.9047 4.28955 4.52637 29.6679 4.52637 60.9738C4.52637 92.2793 29.9047 117.658 61.2106 117.658Z" stroke="black" stroke-width="8.50263" stroke-linecap="round" stroke-linejoin="round"/>
<path d="M74.437 100.653V90.0923C74.5787 88.338 74.3355 86.574 73.7227 84.9182C73.1105 83.2625 72.1429 81.7524 70.8851 80.4889C82.7508 79.201 95.2214 74.8222 95.2214 54.7322C95.2202 49.5947 93.1909 44.6543 89.5529 40.9336C91.2756 36.4391 91.1537 31.4711 89.2128 27.0617C89.2128 27.0617 84.7535 25.7739 74.437 32.5075C65.7756 30.2218 56.646 30.2218 47.9845 32.5075C37.6679 25.7739 33.2088 27.0617 33.2088 27.0617C31.2678 31.4711 31.146 36.4391 32.8687 40.9336C29.2036 44.6819 27.172 49.6669 27.2002 54.8421C27.2002 74.7853 39.6708 79.1642 51.5365 80.5989C50.2934 81.8499 49.3345 83.3418 48.7225 84.9777C48.1105 86.6131 47.859 88.3555 47.9845 90.0923V100.653" stroke="black" stroke-width="8.50263" stroke-linecap="round" stroke-linejoin="round"/>
<path d="M47.9844 93.294C36.6475 96.8748 27.2002 93.2941 21.5317 82.2554" stroke="black" stroke-width="8.50263" stroke-linecap="round" stroke-linejoin="round"/>
</svg>
