<svg width="113" height="113" viewBox="0 0 113 113" fill="none" xmlns="http://www.w3.org/2000/svg">
<path fill-rule="evenodd" clip-rule="evenodd" d="M31.9144 0H80.7148C99.7959 0 112.573 13.3962 112.573 33.3216V79.3134C112.573 99.1825 99.7959 112.573 80.7148 112.573H31.9144C12.8333 112.573 0 99.1825 0 79.3134V33.3216C0 13.3962 12.8333 0 31.9144 0ZM56.2303 39.7439C53.5848 39.7439 51.3896 37.5431 51.3896 34.8469C51.3896 32.0889 53.5848 29.8937 56.3428 29.8937C59.0446 29.8937 61.2397 32.0889 61.2397 34.8469C61.2397 37.5431 59.0446 39.7439 56.2303 39.7439ZM61.1835 77.5685C61.1835 80.2703 58.9883 82.4654 56.2303 82.4654C53.5285 82.4654 51.3333 80.2703 51.3333 77.5685V52.6899C51.3333 49.9825 53.5285 47.7367 56.2303 47.7367C58.9883 47.7367 61.1835 49.9825 61.1835 52.6899V77.5685Z" fill="white"/>
</svg>
