<svg width="15" height="18" viewBox="0 0 15 18" fill="none" xmlns="http://www.w3.org/2000/svg">
<path d="M1.25 17.5H8.75C9.08142 17.4997 9.39917 17.3679 9.63352 17.1335C9.86787 16.8992 9.99967 16.5814 10 16.25V14.375H8.75V16.25H1.25V1.25H8.75V3.125H10V1.25C9.99967 0.918581 9.86787 0.600831 9.63352 0.366482C9.39917 0.132133 9.08142 0.000330923 8.75 0H1.25C0.918581 0.000330923 0.600831 0.132133 0.366482 0.366482C0.132133 0.600831 0.000330923 0.918581 0 1.25V16.25C0.000330923 16.5814 0.132133 16.8992 0.366482 17.1335C0.600831 17.3679 0.918581 17.4997 1.25 17.5Z" fill="#FF0000"/>
<path d="M10.3663 11.6163L12.6075 9.375H3.75V8.125H12.6075L10.3663 5.88375L11.25 5L15 8.75L11.25 12.5L10.3663 11.6163Z" fill="#FF0000"/>
</svg>
