<svg width="113" height="165" viewBox="0 0 113 165" fill="none" xmlns="http://www.w3.org/2000/svg">
<path d="M56.321 113.415C73.2773 113.415 87.0227 99.6694 87.0227 82.7131V31.5436C87.0227 14.5873 73.2773 0.841858 56.321 0.841858C39.3647 0.841858 25.6193 14.5873 25.6193 31.5436V82.7131C25.6193 99.6694 39.3647 113.415 56.321 113.415ZM107.491 62.2453H102.374C99.5464 62.2453 97.2566 64.5351 97.2566 67.3623V82.7131C97.2566 106.635 76.6321 125.83 52.2306 123.45C30.9633 121.375 15.3853 102.257 15.3853 80.8902V67.3623C15.3853 64.5351 13.0955 62.2453 10.2684 62.2453H5.15144C2.32432 62.2453 0.0344849 64.5351 0.0344849 67.3623V80.2058C0.0344849 108.874 20.4927 134.43 48.6455 138.312V149.234H30.7362C27.9091 149.234 25.6193 151.523 25.6193 154.35V159.467C25.6193 162.295 27.9091 164.584 30.7362 164.584H81.9057C84.7329 164.584 87.0227 162.295 87.0227 159.467V154.35C87.0227 151.523 84.7329 149.234 81.9057 149.234H63.9964V138.434C91.4073 134.673 112.607 111.144 112.607 82.7131V67.3623C112.607 64.5351 110.318 62.2453 107.491 62.2453Z" fill="white"/>
</svg>
