<svg width="113" height="114" viewBox="0 0 113 114" fill="none" xmlns="http://www.w3.org/2000/svg">
<path d="M87.7039 0.841858H24.8817C11.1904 0.841858 0.0344849 11.9977 0.0344849 25.689V62.3119V63.4387C0.0344849 77.1864 11.1904 88.2859 24.8817 88.2859H46.5173C49.6162 88.2859 52.1516 90.8214 52.1516 93.9202V99.3855C52.1516 102.484 49.6162 105.02 46.5173 105.02H32.8824C30.5723 105.02 28.6566 106.935 28.6566 109.245C28.6566 111.556 30.516 113.528 32.8824 113.528H79.9286C82.2387 113.528 84.1543 111.612 84.1543 109.302C84.1543 106.992 82.2387 105.076 79.9286 105.076H66.2937C63.1948 105.076 60.6594 102.541 60.6594 99.4418V93.9766C60.6594 90.8777 63.1948 88.3423 66.2937 88.3423H87.7603C101.508 88.3423 112.607 77.1864 112.607 63.4951V62.3682V25.7454C112.551 11.9977 101.395 0.841858 87.7039 0.841858Z" fill="white"/>
</svg>
