<svg width="65" height="65" viewBox="0 0 65 65" fill="none" xmlns="http://www.w3.org/2000/svg">
<path d="M32.0153 59.6262C34.9479 59.6262 37.3473 57.2268 37.3473 54.2942H26.6833C26.6833 57.2268 29.0827 59.6262 32.0153 59.6262ZM48.0113 43.6302V30.3002C48.0113 22.1155 43.6657 15.2639 36.0143 13.451V11.6382C36.0143 9.42538 34.228 7.63916 32.0153 7.63916C29.8025 7.63916 28.0163 9.42538 28.0163 11.6382V13.451C20.3915 15.2639 16.0193 22.0889 16.0193 30.3002V43.6302L10.6873 48.9622V51.6282H53.3433V48.9622L48.0113 43.6302ZM42.6793 46.2962H21.3513V30.3002C21.3513 23.6885 25.3769 18.3032 32.0153 18.3032C38.6536 18.3032 42.6793 23.6885 42.6793 30.3002V46.2962Z" fill="#9D9D9D"/>
</svg>
