<svg width="113" height="104" viewBox="0 0 113 104" fill="none" xmlns="http://www.w3.org/2000/svg">
<path d="M60.9364 56.2854C68.7078 56.2854 75.0077 62.5854 75.0077 70.3568L75.0004 77.3771C75.9654 94.6057 62.6958 103.198 38.0883 103.198C13.5603 103.198 0 94.7182 0 77.623V70.3568C0 62.5854 6.29996 56.2854 14.0714 56.2854H60.9364ZM98.4656 56.2854C106.237 56.2854 112.537 62.5854 112.537 70.3568L112.53 75.2965C113.378 90.7512 101.653 98.4995 80.2217 98.4995C77.3125 98.4995 74.5775 98.3578 72.0234 98.0742C77.0582 93.4248 79.7515 87.1154 79.7423 79.1427L79.6835 77.1148L79.6982 70.3568C79.6982 64.7511 77.2397 59.7195 73.3421 56.2816L98.4656 56.2854ZM37.5236 0C50.4781 0 60.9797 10.5016 60.9797 23.4561C60.9797 36.4105 50.4781 46.9121 37.5236 46.9121C24.5692 46.9121 14.0676 36.4105 14.0676 23.4561C14.0676 10.5016 24.5692 0 37.5236 0ZM84.4282 9.38091C94.79 9.38091 103.19 17.7809 103.19 28.1427C103.19 38.5046 94.79 46.9045 84.4282 46.9045C74.0663 46.9045 65.6663 38.5046 65.6663 28.1427C65.6663 17.7809 74.0663 9.38091 84.4282 9.38091Z" fill="white"/>
</svg>
