<svg width="114" height="114" viewBox="0 0 114 114" fill="none" xmlns="http://www.w3.org/2000/svg">
<path d="M89.7501 9.44727H23.6185C18.3752 9.44727 14.1711 13.6986 14.1711 18.8946V85.0262C14.1711 90.2223 18.4225 94.4736 23.6185 94.4736H42.5132L53.3305 105.291C55.1727 107.133 58.1486 107.133 59.9909 105.291L70.8554 94.4736H89.7501C94.9461 94.4736 99.1975 90.2223 99.1975 85.0262V18.8946C99.1975 13.6986 94.9461 9.44727 89.7501 9.44727ZM56.6843 25.0354C63.7226 25.0354 69.4382 30.7511 69.4382 37.7894C69.4382 44.8277 63.7226 50.5433 56.6843 50.5433C49.646 50.5433 43.9304 44.8277 43.9304 37.7894C43.9304 30.7511 49.646 25.0354 56.6843 25.0354ZM85.0264 75.5788H28.3422V71.3275C28.3422 61.8802 47.2369 56.6841 56.6843 56.6841C66.1317 56.6841 85.0264 61.8802 85.0264 71.3275V75.5788Z" fill="#A5A5A5"/>
</svg>
