<svg width="128" height="128" viewBox="0 0 128 128" fill="none" xmlns="http://www.w3.org/2000/svg">
<path d="M114.118 0H13.6941C6.13382 0 0 6.13382 0 13.6941V114.118C0 121.678 6.13382 127.812 13.6941 127.812H114.118C121.678 127.812 127.812 121.678 127.812 114.118V13.6941C127.812 6.13382 121.678 0 114.118 0ZM104.988 71.894C104.988 73.777 103.448 75.3176 101.565 75.3176H75.3176V101.565C75.3176 103.448 73.777 104.988 71.894 104.988H55.9176C54.0346 104.988 52.4941 103.448 52.4941 101.565V75.3176H26.247C24.3641 75.3176 22.8235 73.777 22.8235 71.894V55.9176C22.8235 54.0346 24.3641 52.4941 26.247 52.4941H52.4941V26.247C52.4941 24.3641 54.0346 22.8235 55.9176 22.8235H71.894C73.777 22.8235 75.3176 24.3641 75.3176 26.247V52.4941H101.565C103.448 52.4941 104.988 54.0346 104.988 55.9176V71.894Z" fill="white"/>
</svg>
