<svg width="94" height="94" viewBox="0 0 94 94" fill="none" xmlns="http://www.w3.org/2000/svg">
<path d="M78.8943 49.3707C78.8943 48.6468 78.8943 47.9228 78.8943 47.17C78.8943 46.4171 78.8943 45.6931 78.8943 44.9402L84.4542 40.0754C85.4791 39.172 86.1516 37.9355 86.353 36.5842C86.5543 35.233 86.2716 33.8541 85.5546 32.6912L78.7206 21.1082C78.2128 20.2286 77.4826 19.4981 76.6033 18.9898C75.724 18.4815 74.7266 18.2134 73.7109 18.2124C73.0815 18.2076 72.4556 18.3054 71.8577 18.502L64.821 20.8765C63.6061 20.0692 62.3388 19.3436 61.0275 18.7047L59.5507 11.4074C59.2859 10.0742 58.5606 8.8766 57.5018 8.02427C56.443 7.17194 55.1182 6.71916 53.7592 6.7452H40.2071C38.8481 6.71916 37.5232 7.17194 36.4644 8.02427C35.4056 8.8766 34.6803 10.0742 34.4155 11.4074L32.9387 18.7047C31.618 19.3435 30.3411 20.069 29.1163 20.8765L22.2244 18.3861C21.6201 18.2287 20.9942 18.17 20.3711 18.2124C19.3555 18.2134 18.358 18.4815 17.4787 18.9898C16.5995 19.4981 15.8693 20.2286 15.3615 21.1082L8.52749 32.6912C7.85158 33.8523 7.60042 35.2124 7.81701 36.5384C8.03361 37.8644 8.70449 39.0738 9.71475 39.9595L15.1877 44.9692V47.17C15.1877 47.17 15.1877 48.6468 15.1877 49.3997L9.71475 54.2646C8.67595 55.1564 7.98672 56.3875 7.76937 57.7393C7.55203 59.0911 7.82062 60.4762 8.52749 61.6487L15.3615 73.2318C15.8693 74.1113 16.5995 74.8418 17.4787 75.3501C18.358 75.8584 19.3555 76.1265 20.3711 76.1275C21.0005 76.1323 21.6265 76.0345 22.2244 75.8379L29.2611 73.4634C30.476 74.2707 31.7433 74.9963 33.0545 75.6352L34.5314 82.9325C34.7962 84.2657 35.5215 85.4633 36.5803 86.3156C37.639 87.168 38.9639 87.6207 40.3229 87.5947H53.9908C55.3498 87.6207 56.6747 87.168 57.7335 86.3156C58.7923 85.4633 59.5176 84.2657 59.7824 82.9325L61.2592 75.6352C62.5799 74.9964 63.8568 74.2709 65.0816 73.4634L72.0893 75.8379C72.6872 76.0345 73.3132 76.1323 73.9426 76.1275C74.9582 76.1265 75.9557 75.8584 76.835 75.3501C77.7143 74.8418 78.4445 74.1113 78.9523 73.2318L85.5546 61.6487C86.2305 60.4876 86.4817 59.1275 86.2651 57.8015C86.0485 56.4755 85.3776 55.2661 84.3673 54.3804L78.8943 49.3707ZM73.7109 70.336L63.7785 66.9769C61.4534 68.9463 58.7961 70.4858 55.931 71.5233L53.875 81.919H40.2071L38.1511 71.6391C35.3087 70.5722 32.6657 69.0354 30.3325 67.0927L20.3711 70.336L13.5371 58.753L21.4136 51.8032C20.8782 48.8056 20.8782 45.737 21.4136 42.7394L13.5371 35.5869L20.3711 24.0039L30.3036 27.363C32.6287 25.3936 35.286 23.8541 38.1511 22.8166L40.2071 12.4209H53.875L55.931 22.7008C58.7734 23.7677 61.4164 25.3045 63.7495 27.2472L73.7109 24.0039L80.5449 35.5869L72.6685 42.5367C73.2039 45.5343 73.2039 48.6029 72.6685 51.6005L80.5449 58.753L73.7109 70.336Z" fill="#9F9F9F"/>
<path d="M47.0409 64.5445C43.6046 64.5445 40.2454 63.5255 37.3881 61.6163C34.5309 59.7072 32.304 56.9937 30.9889 53.8189C29.6739 50.6441 29.3298 47.1507 30.0002 43.7803C30.6706 40.41 32.3254 37.3142 34.7553 34.8843C37.1851 32.4544 40.281 30.7997 43.6513 30.1293C47.0216 29.4589 50.5151 29.8029 53.6899 31.118C56.8646 32.433 59.5782 34.6599 61.4873 37.5172C63.3965 40.3744 64.4155 43.7336 64.4155 47.17C64.4387 49.4581 64.0051 51.7278 63.1402 53.8463C62.2753 55.9648 60.9964 57.8894 59.3783 59.5074C57.7603 61.1254 55.8357 62.4043 53.7173 63.2692C51.5988 64.1342 49.329 64.5677 47.0409 64.5445ZM47.0409 35.5869C45.5101 35.5513 43.9879 35.8265 42.5664 36.396C41.145 36.9655 39.8539 37.8173 38.7711 38.9001C37.6883 39.9829 36.8364 41.274 36.2669 42.6955C35.6975 44.1169 35.4222 45.6391 35.4579 47.17C35.4222 48.7008 35.6975 50.223 36.2669 51.6444C36.8364 53.0659 37.6883 54.357 38.7711 55.4398C39.8539 56.5226 41.145 57.3744 42.5664 57.9439C43.9879 58.5134 45.5101 58.7886 47.0409 58.753C48.5718 58.7886 50.094 58.5134 51.5154 57.9439C52.9368 57.3744 54.228 56.5226 55.3108 55.4398C56.3935 54.357 57.2454 53.0659 57.8149 51.6444C58.3844 50.223 58.6596 48.7008 58.6239 47.17C58.6596 45.6391 58.3844 44.1169 57.8149 42.6955C57.2454 41.274 56.3935 39.9829 55.3108 38.9001C54.228 37.8173 52.9368 36.9655 51.5154 36.396C50.094 35.8265 48.5718 35.5513 47.0409 35.5869Z" fill="#9F9F9F"/>
</svg>
