<svg width="113" height="113" viewBox="0 0 113 113" fill="none" xmlns="http://www.w3.org/2000/svg">
<path d="M62.7831 0.368948C64.2721 0.997175 65.3144 2.33745 65.5819 3.89479L65.6495 4.68926V107.853C65.6495 109.742 64.516 111.447 62.7739 112.177C61.2807 112.804 59.5904 112.609 58.2894 111.708L57.674 111.198L30.2284 84.2351H14.0678C6.75545 84.2351 0.746082 78.6557 0.0643995 71.5222L0 70.1675V42.1352C0 34.8228 5.57923 28.8135 12.713 28.1318L14.0678 28.0674H30.24L57.6883 1.33034C59.0389 0.0147205 61.046 -0.363984 62.7831 0.368948ZM91.3255 9.93356L92.1372 10.485L93.0544 11.2781C93.6443 11.8083 94.4584 12.5763 95.4225 13.5773C97.3479 15.5767 99.8857 18.5229 102.418 22.3797C107.486 30.0992 112.573 41.5407 112.573 56.3091C112.573 71.0783 107.485 82.5029 102.414 90.2055C99.881 94.0535 97.3423 96.9908 95.4159 98.9838L94.0911 100.306L92.3397 101.89L92.0303 102.144C89.9998 103.753 87.0437 103.416 85.4353 101.387C84.0089 99.5859 84.1172 97.0612 85.577 95.3915L86.7886 94.2898C87.2256 93.8987 87.8774 93.2882 88.6727 92.4657C90.2662 90.817 92.4204 88.3307 94.5812 85.0492C98.8963 78.4926 103.194 68.834 103.194 56.3091C103.194 43.7834 98.8963 34.1043 94.5775 27.5268C92.7768 24.7838 90.98 22.5929 89.5079 20.9804L87.9211 19.3272L86.1921 17.7384C84.1692 16.1247 83.8306 13.1722 85.4428 11.1471C86.8766 9.3462 89.3665 8.88163 91.3255 9.93356ZM81.9542 28.6897L82.8881 29.3437L84.1415 30.5229L84.6484 31.0541C85.7129 32.2023 87.0859 33.8842 88.4458 36.1207C91.1796 40.618 93.8253 47.3089 93.8253 56.2576C93.8253 65.2059 91.1796 71.9039 88.4477 76.4078C87.0896 78.6474 85.7166 80.3336 84.6531 81.4844L83.7006 82.4622L83.0414 83.0721L82.6686 83.3882L82.0732 83.6584C80.8316 84.1558 77.9281 84.9663 76.0783 82.652C74.6483 80.863 74.7406 78.3485 76.1807 76.6723L77.4417 75.4603L77.7646 75.1201C78.4633 74.3645 79.4396 73.1758 80.429 71.5438C82.3948 68.3039 84.4468 63.2684 84.4468 56.2576C84.4468 49.2472 82.3948 44.2218 80.4318 40.9926C79.6898 39.7725 78.9556 38.8016 78.3409 38.0752L77.4475 37.0916L76.8052 36.482C74.7915 34.8762 74.4603 31.9312 76.0718 29.9057C77.5048 28.1042 79.9945 27.6386 81.9542 28.6897Z" fill="white"/>
</svg>
