<svg width="113" height="113" viewBox="0 0 113 113" fill="none" xmlns="http://www.w3.org/2000/svg">
<path d="M64.3233 70.0091L105.709 111.396C107.28 112.965 109.825 112.965 111.396 111.396C112.965 109.825 112.965 107.28 111.396 105.709L6.86333 1.17759C5.29326 -0.39253 2.74766 -0.39253 1.17759 1.17759C-0.39253 2.74766 -0.39253 5.29326 1.17759 6.86333L26.4193 32.1052H20.0984C13.437 32.1052 8.03698 37.5052 8.03698 44.1666V68.2008C8.03698 74.8618 13.437 80.2621 20.0984 80.2621H33.954L57.4853 103.38C58.6406 104.514 60.3643 104.846 61.8579 104.219C63.3514 103.593 64.3233 102.131 64.3233 100.512V70.0091Z" fill="white"/>
<path d="M86.1099 69.053L79.7182 62.6614C80.1604 60.7947 80.4403 58.6692 80.4403 56.2748C80.4403 50.2643 78.6809 45.9556 76.998 43.187C76.1496 41.7923 75.3134 40.7772 74.7159 40.1327C74.4176 39.811 74.1812 39.5837 74.0349 39.4498C73.9617 39.3829 73.9118 39.3396 73.8885 39.3197L73.8966 39.3259C72.1619 37.9429 71.8779 35.418 73.2597 33.6814C74.642 31.9437 77.1708 31.6556 78.9085 33.038L78.9157 33.0434L78.9229 33.0494L78.9406 33.0633L78.9833 33.0986L79.1039 33.1995C79.1988 33.2801 79.3218 33.3879 79.4689 33.523C79.7632 33.7929 80.1556 34.1732 80.6123 34.6659C81.525 35.6504 82.703 37.0925 83.8689 39.0099C86.2129 42.8659 88.4812 48.6024 88.4812 56.2748C88.4812 61.3857 87.4745 65.6403 86.1099 69.053Z" fill="white"/>
<path d="M98.307 81.2505L92.3205 75.2633C94.6902 70.212 96.5138 63.8737 96.5138 56.3191C96.5138 45.5799 92.8287 37.2812 89.1258 31.6419C87.2732 28.8197 85.4254 26.6793 84.0576 25.2592C83.375 24.5504 82.8161 24.0249 82.4406 23.6872C82.2533 23.5185 82.1125 23.3971 82.0257 23.3236L81.9364 23.2495C80.202 21.866 79.9109 19.3345 81.294 17.5983C82.677 15.8611 85.2059 15.5742 86.9435 16.9573L86.9572 16.9684L86.9765 16.9843L87.0336 17.0305L87.2137 17.1807C87.3625 17.3063 87.5675 17.4832 87.82 17.7106C88.325 18.1652 89.0237 18.8236 89.8503 19.6819C91.5003 21.396 93.6762 23.922 95.8472 27.2288C100.193 33.8473 104.555 43.657 104.555 56.3191C104.555 66.5635 101.699 74.9312 98.307 81.2505Z" fill="white"/>
<path d="M64.3229 47.2668L41.6622 24.6061L57.4971 9.18155C58.655 8.05357 60.376 7.7288 61.8654 8.3572C63.3547 8.98568 64.3229 10.4449 64.3229 12.0615V47.2668Z" fill="white"/>
</svg>
