<svg width="20" height="20" viewBox="0 0 20 20" fill="none" xmlns="http://www.w3.org/2000/svg">
<path fill-rule="evenodd" clip-rule="evenodd" d="M10.7567 1.31769C10.69 1.17313 10.5833 1.05071 10.4492 0.964905C10.3151 0.879098 10.1593 0.833496 10.0001 0.833496C9.84086 0.833496 9.68499 0.879098 9.5509 0.964905C9.4168 1.05071 9.31009 1.17313 9.24339 1.31769L6.85173 6.50102L1.18423 7.17352C1.0261 7.19219 0.876635 7.25577 0.753517 7.35674C0.630398 7.4577 0.538782 7.59182 0.489511 7.74323C0.44024 7.89464 0.435376 8.05699 0.475496 8.21108C0.515616 8.36517 0.599039 8.50453 0.715893 8.61269L4.90756 12.4877L3.79506 18.0877C3.76416 18.2438 3.7786 18.4055 3.83668 18.5536C3.89476 18.7018 3.99404 18.8302 4.1228 18.9237C4.25155 19.0173 4.40439 19.072 4.56325 19.0814C4.7221 19.0908 4.88033 19.0545 5.01923 18.9769L10.0001 16.1885L14.9809 18.9769C15.1199 19.0548 15.2783 19.0914 15.4374 19.082C15.5965 19.0727 15.7496 19.018 15.8785 18.9243C16.0075 18.8306 16.1068 18.702 16.1649 18.5535C16.2229 18.4051 16.2371 18.2431 16.2059 18.0869L15.0934 12.4885L19.2842 8.61269C19.4011 8.50453 19.4845 8.36517 19.5246 8.21108C19.5647 8.05699 19.5599 7.89464 19.5106 7.74323C19.4613 7.59182 19.3697 7.4577 19.2466 7.35674C19.1235 7.25577 18.974 7.19219 18.8159 7.17352L13.1476 6.50019L10.7567 1.31769Z" fill="#246BFD"/>
</svg>
