<svg width="513" height="175" viewBox="0 0 513 175" fill="none" xmlns="http://www.w3.org/2000/svg">
<circle cx="75" cy="100" r="75" fill="#246BFD"/>
<path d="M42.6875 72.875C42.6875 69.4583 43.2292 66.5208 44.3125 64.0625C45.4375 61.5625 46.75 59.6667 48.25 58.375H105.438C106.938 59.9583 108.292 62.3125 109.5 65.4375C110.708 68.5625 111.312 72.4167 111.312 77C111.312 79.5417 111.167 81.375 110.875 82.5C110.625 83.5833 110.354 84.5 110.062 85.25C109.771 86 109.479 86.7917 109.188 87.625C104.771 93.875 99.2083 100.167 92.5 106.5C86.4583 106.708 81.9583 107.229 79 108.062C76.0833 108.854 74.625 109.833 74.625 111C74.625 111.5 74.8333 111.979 75.25 112.438C77.2917 111.562 80.0833 110.833 83.625 110.25C87.2083 109.625 90.6667 109.312 94 109.312H108.062C110.854 114.271 112.25 118.958 112.25 123.375C112.25 127.792 111.271 131.167 109.312 133.5C107.354 135.833 104.917 137.375 102 138.125C99.875 138.708 97.2292 139 94.0625 139H48.25C43.9167 134.5 41.75 127.458 41.75 117.875C41.75 115.75 41.9583 113.771 42.375 111.938C46.0833 107.521 50.4167 102.667 55.375 97.375C60.3333 92.0833 65 87.3542 69.375 83.1875C69.2083 82.2708 68.6458 81.8125 67.6875 81.8125C67.1042 81.8125 66.3125 82.2083 65.3125 83C64.3125 83.7917 62.7708 85.3125 60.6875 87.5625H47.25C44.2083 82.7708 42.6875 77.875 42.6875 72.875Z" fill="#F5F5F5"/>
<path d="M176.56 131.4H210.992V141H163.248V131.4L197.296 80.328H163.504V70.856H210.736V80.328L176.56 131.4ZM256.698 142.152C250.127 142.152 244.154 140.659 238.778 137.672C233.487 134.685 229.306 130.461 226.234 125C223.247 119.453 221.754 113.053 221.754 105.8C221.754 98.632 223.29 92.3173 226.362 86.856C229.519 81.3093 233.786 77.0853 239.162 74.184C244.538 71.1973 250.554 69.704 257.21 69.704C263.866 69.704 269.882 71.1973 275.258 74.184C280.634 77.0853 284.858 81.2667 287.93 86.728C291.087 92.1893 292.666 98.5467 292.666 105.8C292.666 113.053 291.045 119.453 287.802 125C284.645 130.461 280.335 134.685 274.874 137.672C269.413 140.659 263.354 142.152 256.698 142.152ZM256.698 131.912C260.879 131.912 264.805 130.931 268.474 128.968C272.143 127.005 275.087 124.061 277.306 120.136C279.61 116.211 280.762 111.432 280.762 105.8C280.762 100.168 279.653 95.3893 277.434 91.464C275.215 87.5387 272.314 84.6373 268.73 82.76C265.146 80.7973 261.263 79.816 257.082 79.816C252.815 79.816 248.89 80.7973 245.306 82.76C241.807 84.6373 238.991 87.5387 236.858 91.464C234.725 95.3893 233.658 100.168 233.658 105.8C233.658 111.517 234.682 116.339 236.73 120.264C238.863 124.189 241.679 127.133 245.178 129.096C248.677 130.973 252.517 131.912 256.698 131.912ZM392.333 69.576C397.794 69.576 402.658 70.728 406.925 73.032C411.192 75.2507 414.562 78.6213 417.037 83.144C419.512 87.6667 420.749 93.1707 420.749 99.656V141H409.229V101.32C409.229 94.3227 407.48 88.9893 403.981 85.32C400.568 81.5653 395.917 79.688 390.029 79.688C383.97 79.688 379.149 81.6507 375.565 85.576C371.981 89.416 370.189 95.0053 370.189 102.344V141H358.669V101.32C358.669 94.3227 356.92 88.9893 353.421 85.32C350.008 81.5653 345.357 79.688 339.469 79.688C333.41 79.688 328.589 81.6507 325.005 85.576C321.421 89.416 319.629 95.0053 319.629 102.344V141H307.981V70.856H319.629V80.968C321.933 77.2987 325.005 74.4827 328.845 72.52C332.77 70.5573 337.08 69.576 341.773 69.576C347.661 69.576 352.866 70.8987 357.389 73.544C361.912 76.1893 365.282 80.072 367.501 85.192C369.464 80.2427 372.706 76.4027 377.229 73.672C381.752 70.9413 386.786 69.576 392.333 69.576ZM470.448 142.152C463.877 142.152 457.904 140.659 452.528 137.672C447.237 134.685 443.056 130.461 439.984 125C436.997 119.453 435.504 113.053 435.504 105.8C435.504 98.632 437.04 92.3173 440.112 86.856C443.269 81.3093 447.536 77.0853 452.912 74.184C458.288 71.1973 464.304 69.704 470.96 69.704C477.616 69.704 483.632 71.1973 489.008 74.184C494.384 77.0853 498.608 81.2667 501.68 86.728C504.837 92.1893 506.416 98.5467 506.416 105.8C506.416 113.053 504.795 119.453 501.552 125C498.395 130.461 494.085 134.685 488.624 137.672C483.163 140.659 477.104 142.152 470.448 142.152ZM470.448 131.912C474.629 131.912 478.555 130.931 482.224 128.968C485.893 127.005 488.837 124.061 491.056 120.136C493.36 116.211 494.512 111.432 494.512 105.8C494.512 100.168 493.403 95.3893 491.184 91.464C488.965 87.5387 486.064 84.6373 482.48 82.76C478.896 80.7973 475.013 79.816 470.832 79.816C466.565 79.816 462.64 80.7973 459.056 82.76C455.557 84.6373 452.741 87.5387 450.608 91.464C448.475 95.3893 447.408 100.168 447.408 105.8C447.408 111.517 448.432 116.339 450.48 120.264C452.613 124.189 455.429 127.133 458.928 129.096C462.427 130.973 466.267 131.912 470.448 131.912Z" fill="black"/>
</svg>
