<svg width="150" height="163" viewBox="0 0 150 163" fill="none" xmlns="http://www.w3.org/2000/svg">
<circle cx="75" cy="88" r="75" fill="#246BFD"/>
<path d="M42.6875 60.875C42.6875 57.4583 43.2292 54.5208 44.3125 52.0625C45.4375 49.5625 46.75 47.6667 48.25 46.375H105.438C106.938 47.9583 108.292 50.3125 109.5 53.4375C110.708 56.5625 111.312 60.4167 111.312 65C111.312 67.5417 111.167 69.375 110.875 70.5C110.625 71.5833 110.354 72.5 110.062 73.25C109.771 74 109.479 74.7917 109.188 75.625C104.771 81.875 99.2083 88.1667 92.5 94.5C86.4583 94.7083 81.9583 95.2292 79 96.0625C76.0833 96.8542 74.625 97.8333 74.625 99C74.625 99.5 74.8333 99.9792 75.25 100.438C77.2917 99.5625 80.0833 98.8333 83.625 98.25C87.2083 97.625 90.6667 97.3125 94 97.3125H108.062C110.854 102.271 112.25 106.958 112.25 111.375C112.25 115.792 111.271 119.167 109.312 121.5C107.354 123.833 104.917 125.375 102 126.125C99.875 126.708 97.2292 127 94.0625 127H48.25C43.9167 122.5 41.75 115.458 41.75 105.875C41.75 103.75 41.9583 101.771 42.375 99.9375C46.0833 95.5208 50.4167 90.6667 55.375 85.375C60.3333 80.0833 65 75.3542 69.375 71.1875C69.2083 70.2708 68.6458 69.8125 67.6875 69.8125C67.1042 69.8125 66.3125 70.2083 65.3125 71C64.3125 71.7917 62.7708 73.3125 60.6875 75.5625H47.25C44.2083 70.7708 42.6875 65.875 42.6875 60.875Z" fill="#F5F5F5"/>
</svg>
