<svg width="72" height="81" viewBox="0 0 72 81" fill="none" xmlns="http://www.w3.org/2000/svg">
<path d="M1.6875 14.875C1.6875 11.4583 2.22917 8.52083 3.3125 6.0625C4.4375 3.5625 5.75 1.66667 7.25 0.375H64.4375C65.9375 1.95833 67.2917 4.3125 68.5 7.4375C69.7083 10.5625 70.3125 14.4167 70.3125 19C70.3125 21.5417 70.1667 23.375 69.875 24.5C69.625 25.5833 69.3542 26.5 69.0625 27.25C68.7708 28 68.4792 28.7917 68.1875 29.625C63.7708 35.875 58.2083 42.1667 51.5 48.5C45.4583 48.7083 40.9583 49.2292 38 50.0625C35.0833 50.8542 33.625 51.8333 33.625 53C33.625 53.5 33.8333 53.9792 34.25 54.4375C36.2917 53.5625 39.0833 52.8333 42.625 52.25C46.2083 51.625 49.6667 51.3125 53 51.3125H67.0625C69.8542 56.2708 71.25 60.9583 71.25 65.375C71.25 69.7917 70.2708 73.1667 68.3125 75.5C66.3542 77.8333 63.9167 79.375 61 80.125C58.875 80.7083 56.2292 81 53.0625 81H7.25C2.91667 76.5 0.75 69.4583 0.75 59.875C0.75 57.75 0.958333 55.7708 1.375 53.9375C5.08333 49.5208 9.41667 44.6667 14.375 39.375C19.3333 34.0833 24 29.3542 28.375 25.1875C28.2083 24.2708 27.6458 23.8125 26.6875 23.8125C26.1042 23.8125 25.3125 24.2083 24.3125 25C23.3125 25.7917 21.7708 27.3125 19.6875 29.5625H6.25C3.20833 24.7708 1.6875 19.875 1.6875 14.875Z" fill="#246BFD"/>
</svg>
